<mxfile host="Electron" modified="2023-06-23T13:27:57.963Z" agent="Mozilla/5.0 (X11; Linux x86_64) AppleWebKit/537.36 (KHTML, like Gecko) draw.io/21.2.8 Chrome/112.0.5615.165 Electron/24.2.0 Safari/537.36" etag="JfKd9Ucy78Lw5r9ZzfMV" version="21.2.8" type="device">
  <diagram name="Page-1" id="WISZxIZAq1mXbUMXp3y-">
    <mxGraphModel dx="1594" dy="774" grid="1" gridSize="10" guides="1" tooltips="1" connect="1" arrows="1" fold="1" page="1" pageScale="1" pageWidth="850" pageHeight="1100" math="0" shadow="0">
      <root>
        <mxCell id="0" />
        <mxCell id="1" parent="0" />
        <mxCell id="ZEgReHH3KMXs59Ai81qr-1" value="" style="rounded=0;whiteSpace=wrap;html=1;" vertex="1" parent="1">
          <mxGeometry x="90" y="70" width="680" height="660" as="geometry" />
        </mxCell>
        <mxCell id="ZEgReHH3KMXs59Ai81qr-2" value="State Level 1" style="text;strokeColor=none;fillColor=none;align=left;verticalAlign=middle;spacingLeft=4;spacingRight=4;overflow=hidden;points=[[0,0.5],[1,0.5]];portConstraint=eastwest;rotatable=0;whiteSpace=wrap;html=1;" vertex="1" parent="1">
          <mxGeometry x="390" y="110" width="140" height="20" as="geometry" />
        </mxCell>
        <mxCell id="ZEgReHH3KMXs59Ai81qr-3" value="Character" style="rounded=0;whiteSpace=wrap;html=1;" vertex="1" parent="1">
          <mxGeometry x="180" y="190" width="130" height="70" as="geometry" />
        </mxCell>
        <mxCell id="ZEgReHH3KMXs59Ai81qr-4" value="Map (platforms)" style="rounded=0;whiteSpace=wrap;html=1;" vertex="1" parent="1">
          <mxGeometry x="540" y="190" width="120" height="70" as="geometry" />
        </mxCell>
        <mxCell id="ZEgReHH3KMXs59Ai81qr-5" style="edgeStyle=orthogonalEdgeStyle;rounded=0;orthogonalLoop=1;jettySize=auto;html=1;exitX=0.5;exitY=1;exitDx=0;exitDy=0;" edge="1" parent="1" source="ZEgReHH3KMXs59Ai81qr-3" target="ZEgReHH3KMXs59Ai81qr-3">
          <mxGeometry relative="1" as="geometry" />
        </mxCell>
        <mxCell id="ZEgReHH3KMXs59Ai81qr-9" value="&lt;br&gt;Tiene una instancia que se encarga de revisar las interacciones con los personajes.&amp;nbsp;&lt;br&gt;" style="text;html=1;strokeColor=none;fillColor=none;spacing=5;spacingTop=-20;whiteSpace=wrap;overflow=hidden;rounded=0;" vertex="1" parent="1">
          <mxGeometry x="520" y="290" width="190" height="80" as="geometry" />
        </mxCell>
        <mxCell id="ZEgReHH3KMXs59Ai81qr-10" value="Tiene un método caer que constantemente suma un valor positivo a la componente &#39;y&#39; de la posición del jugador.&lt;br&gt;&lt;br&gt;Cuando el jugador está en caida no puede correr, saltar, agacharse. Esto quiere decir que mientras la acción caer del jugador está activa no puede existir otra acción en la lista de acciones." style="text;html=1;strokeColor=none;fillColor=none;spacing=5;spacingTop=-20;whiteSpace=wrap;overflow=hidden;rounded=0;" vertex="1" parent="1">
          <mxGeometry x="160" y="290" width="210" height="160" as="geometry" />
        </mxCell>
      </root>
    </mxGraphModel>
  </diagram>
</mxfile>
